<svg width="28" height="24" viewBox="0 0 28 24" fill="none" xmlns="http://www.w3.org/2000/svg">
<path d="M17.3137 9.14811V17.7037M1 5.07409C15.2745 3.03704 27 5.07409 27 5.07409M10.1765 9.14811V17.7037M13.7451 8.7407V18.1111M11.7059 1C10.8428 1 10.4363 1.87847 10.2718 2.63439C10.1706 3.09906 10.5114 3.51248 10.9774 3.60714L13.5585 4.13142C13.6818 4.15646 13.8087 4.15802 13.9326 4.136L16.9985 3.59108C17.4758 3.50625 17.8429 3.08472 17.7262 2.6142C17.4593 1.53807 16.7084 1 16.2941 1C15.2745 1 12.9294 1 11.7059 1ZM21.6471 13.6296L22.7507 6.22137C22.8407 5.61707 22.3725 5.07402 21.7616 5.07402H13.7451H5.72863C5.11767 5.07402 4.64952 5.61707 4.73955 6.22137L7.00557 21.4328C7.0718 21.8774 7.42651 22.2232 7.87263 22.278L13.6231 22.985C13.7041 22.995 13.7861 22.995 13.8671 22.985L19.6176 22.278C20.0637 22.2231 20.4184 21.8774 20.4846 21.4328L21.6471 13.6296Z" stroke="tomato" stroke-width="2"/>
</svg>
