<svg xmlns="http://www.w3.org/2000/svg" viewBox="0 0 552.32 143.9"><defs><style>.cls-1{fill:#000f9f;}.cls-2{fill:#009fe3;}.cls-3{fill:#fff;}</style></defs><title>Recurso 1</title><g id="Capa_2" data-name="Capa 2"><g id="Capa_1-2" data-name="Capa 1"><path class="cls-1" d="M202.26,66.14C202.26,29.7,157,0,101.13,0S0,29.7,0,66.14c0,1,0,3.55,0,3.88,0,38.65,39.57,70,101.12,70,61.93,0,101.14-31.3,101.14-70V66.14Z"/><path class="cls-2" d="M198.39,66.11c0,34.36-43.53,62.21-97.24,62.21S3.92,100.47,3.92,66.11s43.53-62.2,97.23-62.2,97.24,27.85,97.24,62.2Z"/><path class="cls-3" d="M68.87,46.49c-.05.09-1,1.1-.4,1.9,1.54,2,6.28,3.09,11.07,2,2.86-.64,6.51-3.55,10.06-6.36,3.84-3,7.65-6.1,11.48-7.32a13.12,13.12,0,0,1,8.37-.22c1.88.57,4.09,1.81,7.63,4.46,6.65,5,33.4,28.35,38,32.39a229.82,229.82,0,0,1,42.76-13.76c-2-12-9.25-23-20.31-31.94-15.41,6.48-34.24,9.85-52.66.86-.09,0-10.06-4.76-19.89-4.53-14.62.34-21,6.67-27.65,13.36l-8.48,9.15Z"/><path class="cls-3" d="M154,75.89c-.32-.28-31.46-27.53-38.51-32.84-4.09-3.06-6.36-3.84-8.74-4.14a11.93,11.93,0,0,0-4.16.39c-3.28.9-7.57,3.77-11.38,6.79S83.56,52.19,80.11,53c-4.41,1-9.79-.18-12.25-1.84a5.4,5.4,0,0,1-2-2.23c-.91-2.1.76-3.78,1-4.07l8.59-9.29c1-1,2-2,3-3a56.05,56.05,0,0,0-7.83,1.76A34.12,34.12,0,0,1,61.53,36a86.42,86.42,0,0,1-9.33-1.46,139.54,139.54,0,0,1-24.8-9C15.18,34.69,7,46.07,4.65,58.59c1.76.47,4.58,1.31,5.77,1.57C38.07,66.31,46.68,72.64,48.25,74a9.14,9.14,0,0,1,14.34.85,10.46,10.46,0,0,1,6.59-2.32,12.3,12.3,0,0,1,4,.7,9,9,0,0,1,5.56,5,9.17,9.17,0,0,1,3.85-.81,11.5,11.5,0,0,1,4.6,1c5.09,2.19,5.89,7.19,5.42,11a10.14,10.14,0,0,1,1.1-.06,10.95,10.95,0,0,1,9.65,16.14c1.65.92,5.84,3,9.52,2.55,2.94-.37,4.06-1.38,4.46-1.94.27-.39.56-.85.29-1.17l-7.8-8.67s-1.29-1.21-.86-1.68,1.23.21,1.79.68c4,3.31,8.82,8.32,8.82,8.32s.4.69,2.2,1a8.14,8.14,0,0,0,6.16-1.44,9,9,0,0,0,1.36-1.39.28.28,0,0,1-.09.07c2-2.55-.22-5.13-.22-5.13l-9.11-10.23s-1.3-1.2-.86-1.69,1.24.21,1.81.69c2.88,2.41,6.95,6.5,10.86,10.32.76.56,4.19,2.69,8.74-.3,2.76-1.81,3.31-4,3.23-5.71A6.5,6.5,0,0,0,141.7,86L129.26,73.44s-1.32-1.12-.85-1.69,1.23.21,1.79.68c4,3.32,14.69,13.16,14.69,13.16a7.58,7.58,0,0,0,8.44-.17A5.65,5.65,0,0,0,156.11,81,6.59,6.59,0,0,0,154,75.89Z"/><path class="cls-3" d="M93.67,91.74c-1.93,0-4,1.12-4.31,1s.12-.88.3-1.33,2.72-8.08-3.47-10.74c-4.74-2-7.64.26-8.63,1.29-.26.27-.38.25-.41-.09a6.82,6.82,0,0,0-4.8-6.35,9.38,9.38,0,0,0-10.56,3.76,6.75,6.75,0,1,0-2,5.75s.06.1,0,.23C59.53,86.9,59,93,65.39,95.48a6.67,6.67,0,0,0,6.54-1c.54-.38.63-.22.55.28-.23,1.57.07,4.93,4.77,6.84a6,6,0,0,0,7.09-1.32c.61-.55.77-.46.81.39a8.53,8.53,0,1,0,8.52-8.92Z"/><path class="cls-1" d="M93.67,108.2a7.86,7.86,0,0,1-7.9-7.56c0-.36,0-1.33-.87-1.33a1.52,1.52,0,0,0-1,.51,5.58,5.58,0,0,1-3.89,1.76,6.86,6.86,0,0,1-2.56-.56c-4.51-1.83-4.57-4.93-4.39-6.18a1.11,1.11,0,0,0-.16-.94l-.28-.25h-.28a1.35,1.35,0,0,0-.79.32,6.63,6.63,0,0,1-3.83,1.36,5.9,5.9,0,0,1-2.14-.42C59.68,92.6,60.15,87,60.44,85.3a.83.83,0,0,0-.26-.79l-.42-.34-.39.38a6.18,6.18,0,1,1,1.83-5.23L61.41,81l.91-1.41a9.06,9.06,0,0,1,7.18-3.93,8.82,8.82,0,0,1,2.68.43,6.25,6.25,0,0,1,4.37,5.8c.06.81.64.85.75.85a1,1,0,0,0,.71-.37,6.22,6.22,0,0,1,4.54-1.92,8.8,8.8,0,0,1,3.41.76c5.81,2.5,3.17,9.88,3.14,10-.5,1.22-.52,1.76,0,2.07l.23.11h.17A4,4,0,0,0,90.57,93a9.9,9.9,0,0,1,3.1-.69h0a7.93,7.93,0,1,1,0,15.85Zm61.55-35.58c-9.59-8.37-31.76-27.64-37.77-32.15-3.43-2.58-5.77-3.95-7.82-4.56a12.91,12.91,0,0,0-3.85-.59,16.09,16.09,0,0,0-4.88.82c-3.88,1.22-7.74,4.3-11.48,7.27l-.19.15c-3.49,2.77-7.09,5.63-9.81,6.24a16.43,16.43,0,0,1-3.63.41c-3.06,0-5.8-.89-6.82-2.2-.17-.21-.07-.56.33-1.07l0-.06,8.44-9.1C84.4,31.17,90.65,24.93,105,24.6h.72c8.94,0,17.88,4,18.89,4.47a58.57,58.57,0,0,0,25.75,6.18c9.07,0,18.42-2.24,28.26-6.77q-1.65-1.39-3.41-2.71c-8.65,3.75-16.88,5.64-24.83,5.64a54.8,54.8,0,0,1-24.09-5.8c-.42-.2-10.3-4.85-20.57-4.86h-.81c-12.07.28-18.87,4.57-23.44,8.33a46.16,46.16,0,0,0-11.7,2.13,31.64,31.64,0,0,1-8.24,1.58c-1.06,0-3-.1-3.14-.1C55.46,32.6,40.6,29,28.77,24.47q-1.8,1.29-3.5,2.64c12.36,5.06,27.39,9,32.13,9.29,1.32.09,2.73.23,4.14.24a35,35,0,0,0,9.3-1.73c1.79-.5,3.77-1,5.85-1.45L75,35.11l-8.57,9.28a4.31,4.31,0,0,0-1.18,4.74,6.12,6.12,0,0,0,2.26,2.5,17.78,17.78,0,0,0,9.1,2.31,16.71,16.71,0,0,0,3.63-.38c3.59-.81,7.36-3.81,11.36-7,3.18-2.52,7.7-5.73,11.16-6.68a12.92,12.92,0,0,1,3.11-.42,6.86,6.86,0,0,1,.81,0c2.29.29,4.5,1.07,8.44,4,7,5.29,38.19,32.54,38.49,32.81a6,6,0,0,1,1.87,4.58,5,5,0,0,1-2.48,4,7.56,7.56,0,0,1-4.09,1.28,6.7,6.7,0,0,1-3.61-1.05C145.2,85,134.53,75.25,130.61,72a3.37,3.37,0,0,0-1.85-1,1.05,1.05,0,0,0-.82.38c-.62.77.08,1.82.89,2.51L141.3,86.4A6,6,0,0,1,143,89.78a5.7,5.7,0,0,1-3,5.17,8,8,0,0,1-4.42,1.46,6.36,6.36,0,0,1-3.55-1.08l-1.79-1.76C127,90.35,123.66,87,121.19,85a3.35,3.35,0,0,0-1.86-1,1.07,1.07,0,0,0-.79.33c-.28.32-.48.88.23,1.81a6.12,6.12,0,0,0,.63.71l9.09,10.21a3.48,3.48,0,0,1,.21,4.36l-.32.41a10.77,10.77,0,0,1-.85.82,7.29,7.29,0,0,1-4.44,1.41,6.62,6.62,0,0,1-1.23-.11,3.16,3.16,0,0,1-1.8-.75l-.11-.12c-.49-.51-5.08-5.19-8.87-8.36a3.16,3.16,0,0,0-1.77-1,1.09,1.09,0,0,0-.82.37c-.75.82.37,2,.85,2.5l7.76,8.56a2.08,2.08,0,0,1-.29.52c-.28.38-1.22,1.32-4,1.68a8.64,8.64,0,0,1-1,.06,17.8,17.8,0,0,1-7.59-2.25A11.58,11.58,0,0,0,93.68,88.7h-.41c.2-2.91-.21-8.43-5.87-10.86a12.12,12.12,0,0,0-4.84-1.07,9.84,9.84,0,0,0-3.55.64,9.74,9.74,0,0,0-5.66-4.81,12.94,12.94,0,0,0-4.16-.73A10.93,10.93,0,0,0,62.72,74a9.76,9.76,0,0,0-14.52-.82c-2.42-1.84-12-7.93-37.64-13.75-1.24-.28-4.09-1.09-5.83-1.61A42.37,42.37,0,0,0,4.07,62s4.73,1.13,5.66,1.34c26.19,5.82,34.85,11.87,36.31,13a10.15,10.15,0,0,0-.76,3.77A9.85,9.85,0,0,0,56.9,89.76a11.43,11.43,0,0,0,7.4,8.55,9.71,9.71,0,0,0,3.5.68A9.33,9.33,0,0,0,70,98.71a11.36,11.36,0,0,0,10,6.49,8.68,8.68,0,0,0,3-.53,11.55,11.55,0,0,0,19,3.66,21.87,21.87,0,0,0,9.8,2.93,12,12,0,0,0,1.49-.1c4-.5,5.79-2,6.64-3.25a5.59,5.59,0,0,0,.41-.66,11.42,11.42,0,0,0,3.14.49,10.57,10.57,0,0,0,6.33-2.27A8.71,8.71,0,0,0,133.5,100s0-.05,0-.08a10,10,0,0,0,2.11.22,11.78,11.78,0,0,0,6.51-2.07,9.38,9.38,0,0,0,4.67-8.36A10.3,10.3,0,0,0,149,90a11.23,11.23,0,0,0,6.1-1.87,8.89,8.89,0,0,0,4.23-6.89,9.28,9.28,0,0,0-1.34-5.57A252.07,252.07,0,0,1,198.34,63a41.76,41.76,0,0,0-.56-4.19,231.59,231.59,0,0,0-42.56,13.82Z"/><path class="cls-1" d="M537.8,50.23a10,10,0,0,1-15.25,0c-1.79-2.34-2.68-5.69-2.68-10s.89-7.66,2.68-10a10,10,0,0,1,15.25,0q2.66,3.51,2.66,10c0,4.33-.89,7.68-2.66,10ZM546.85,24q-5.48-6.85-16.63-6.86T513.6,24a25.19,25.19,0,0,0-5.48,16.21,25.07,25.07,0,0,0,5.48,16.28q5.48,6.75,16.62,6.76t16.63-6.76a25.06,25.06,0,0,0,5.47-16.28A25.18,25.18,0,0,0,546.85,24Z"/><path class="cls-1" d="M447.81,44.9c-.07,3.79-1.16,6.4-3.25,7.84a11.87,11.87,0,0,1-6.84,2.15,6.25,6.25,0,0,1-4-1.3,5,5,0,0,1-1.63-4.2,5.18,5.18,0,0,1,2.67-4.81A17.05,17.05,0,0,1,440,43l2.59-.48a18.57,18.57,0,0,0,3-.78,12.16,12.16,0,0,0,2.2-1.09V44.9Zm5.75-24.72a27.67,27.67,0,0,0-12.7-2.83q-11,0-15.51,5.73a16.65,16.65,0,0,0-3.21,9.36h10.95a8.15,8.15,0,0,1,1.62-4q1.69-2,5.76-2a11.81,11.81,0,0,1,5.51,1,3.82,3.82,0,0,1,1.88,3.68,3.42,3.42,0,0,1-2.45,3.23,17.69,17.69,0,0,1-4.54,1l-3.88.48c-4.4.56-7.75,1.49-10,2.79q-6.23,3.59-6.22,11.58,0,6.17,3.87,9.53c2.57,2.24,5.84,3.19,9.79,3.37,24.76,1.1,24.48-13.05,24.71-16V30.84q0-7.83-5.56-10.66Z"/><path class="cls-1" d="M397.1,27.06q4.25,0,6.25,2.62A9.69,9.69,0,0,1,405.08,34h12.21q-1-9.24-6.47-12.9c-3.65-2.42-8.33-3.65-14.05-3.65-6.72,0-12,2.07-15.82,6.19s-5.74,9.91-5.74,17.32q0,9.86,5.19,16.06t16.2,6.19q11,0,16.63-7.43a18.35,18.35,0,0,0,3.93-9.76H405a10.27,10.27,0,0,1-2.14,5.56c-1.17,1.42-3.15,2.14-6,2.14a7.94,7.94,0,0,1-8-5.4,20.64,20.64,0,0,1-1.18-7.63,22.55,22.55,0,0,1,1.18-8,8.19,8.19,0,0,1,8.25-5.67Z"/><path class="cls-1" d="M371.93,17.49c-25.08,0-23.6,22.22-23.6,22.22V62.27h11.39V41.11c0-3.47.44-6,1.3-7.71Q363.38,29,370.19,29c.34,0,.79,0,1.35,0s1.18.08,1.91.16V17.58l-1-.06a4,4,0,0,0-.54,0Z"/><path class="cls-1" d="M314.81,29.28a9,9,0,0,1,6.75-2.47,9.91,9.91,0,0,1,6.71,2.34,9.45,9.45,0,0,1,3,6.83H311.8a11.68,11.68,0,0,1,3-6.7Zm15.3,21.2a7.9,7.9,0,0,1-1.56,1.72c-1.6,1.33-3.79,1.73-6.36,1.73a10.85,10.85,0,0,1-6.06-1.45c-2.84-1.75-4.44-4.7-4.61-9H343a55.12,55.12,0,0,0-.38-8.58,21.24,21.24,0,0,0-3.44-8.95,17.65,17.65,0,0,0-7.48-6.4,24.74,24.74,0,0,0-10.16-2q-9.51,0-15.47,6t-6,17.24q0,12,6.6,17.31A23.6,23.6,0,0,0,322,63.36q10.45,0,16.27-6.31a15.34,15.34,0,0,0,3.95-6.57Z"/><path class="cls-1" d="M295.56,62.27h-10.4V36.08c0-2.39-.79-8.08-7.65-8.08-4.58,0-7.89,3.3-7.89,8.08V62.27h-10.4V36.08c0-2.39-.71-8.08-7.57-8.08-4.65,0-7.89,3.3-7.89,8.08V62.27h-10.4V36.33c0-10.81,7.17-19,18.29-19a16,16,0,0,1,12.93,6,16.58,16.58,0,0,1,12.93-6c11.35,0,18.05,7.85,18.05,19V62.27Z"/><path class="cls-1" d="M491.08,50.33a8.34,8.34,0,0,1-7.3,3.57,8,8,0,0,1-7.16-3.59c-1.57-2.4-2.36-5.89-2.36-9.88a17.34,17.34,0,0,1,2.32-9.3,8,8,0,0,1,7.28-3.76,8.64,8.64,0,0,1,5.72,2.07c2.67,2.27,4,6.36,4,11.64a15.75,15.75,0,0,1-2.5,9.25ZM504.74,3.82s-11.47-1.23-11.47,8V24a13.68,13.68,0,0,0-5-4.78,13.92,13.92,0,0,0-7-1.73,16.61,16.61,0,0,0-13.63,6.35c-3.4,4.24-5.09,10.34-5.09,17.72q0,9.6,5.18,15.74c3.45,4.08,10.22,5.87,16.23,5.87,21,0,20.72-18,20.72-18V3.82Z"/><path class="cls-2" d="M335.57,103.72q0-6.43-2.51-9.91a8.37,8.37,0,0,0-7.2-3.47,8.22,8.22,0,0,0-7,3.47q-2.34,3.15-2.34,9.91c0,4.2.84,7.32,2.51,9.42a8.33,8.33,0,0,0,7.2,3.47,8,8,0,0,0,6.86-3.47c1.68-2.31,2.51-5.44,2.51-9.42m-19.08,30.81a5.35,5.35,0,0,1-1.68,4,5.51,5.51,0,0,1-4,1.66h-5.69V100.58c0-7.69,2.59-12.51,6.86-15.77,2.82-2.15,7-4.2,14.9-4.2,5.31,0,11.54,2.06,14.9,6.16,3.77,4.61,5.35,9.75,5.35,16.46,0,6.94-1.68,12.54-5,16.84a15.78,15.78,0,0,1-12.89,6.28,17.36,17.36,0,0,1-7.36-1.48,12.54,12.54,0,0,1-5.36-5.13v14.79Z"/><path class="cls-2" d="M403.81,103.73q0,11.38,6.58,12.63t9.7-3.07a12.35,12.35,0,0,0,2.13-5.68,24.09,24.09,0,0,0,.09-7.67,15.22,15.22,0,0,0-2.72-6.77,7.19,7.19,0,0,0-6.24-3c-3.73,0-6.24,1.38-7.56,4.12a21.36,21.36,0,0,0-2,9.41m18.74,19v-2.8a12.58,12.58,0,0,1-8,5.78,16.34,16.34,0,0,1-9.94-.83,18.47,18.47,0,0,1-8.47-7.34q-3.54-5.37-3.53-14.12,0-10.22,4.68-16.58c3.12-4.23,8.14-6.16,15-6.35s10.76,1.36,14.63,4.29c4.24,3.22,6.74,8.15,6.74,15.84v23.28c0,7.4-5.15,21.13-21.37,20-10.05-.72-15.62-4.85-18.74-14.19h12a8.49,8.49,0,0,0,4,3.54,8.39,8.39,0,0,0,5.41.66,9,9,0,0,0,4.94-3.21c1.47-1.76,2.32-4.41,2.54-7.93"/><path class="cls-2" d="M377.14,108.32c-.07,3.8-1.16,6.41-3.24,7.84a11.88,11.88,0,0,1-6.85,2.15,6.23,6.23,0,0,1-4-1.29,5.07,5.07,0,0,1-1.64-4.21,5.19,5.19,0,0,1,2.68-4.81,16.82,16.82,0,0,1,5.22-1.54l2.58-.49a18.19,18.19,0,0,0,3-.78,10.9,10.9,0,0,0,2.19-1.09v4.22ZM382.9,83.6a27.83,27.83,0,0,0-12.7-2.82q-11,0-15.52,5.73a16.62,16.62,0,0,0-3.2,9.35h11a8.09,8.09,0,0,1,1.61-4c1.13-1.32,3.05-2,5.76-2a11.79,11.79,0,0,1,5.51,1,3.8,3.8,0,0,1,1.88,3.68,3.41,3.41,0,0,1-2.45,3.22,18,18,0,0,1-4.54,1l-3.88.47c-4.4.56-7.76,1.5-10,2.79q-6.22,3.59-6.22,11.58,0,6.16,3.87,9.53c2.56,2.24,5.84,3.19,9.79,3.37,24.75,1.11,24.47-13,24.7-16V94.27q0-7.84-5.55-10.67"/><path class="cls-2" d="M467.75,113.42a10,10,0,0,1-15.25,0c-1.8-2.35-2.68-5.69-2.68-10s.88-7.67,2.68-10a10,10,0,0,1,15.25,0q2.65,3.5,2.66,10t-2.66,10m9.05-26.23q-5.49-6.87-16.64-6.86t-16.61,6.86a25.13,25.13,0,0,0-5.48,16.21,25,25,0,0,0,5.48,16.27q5.47,6.75,16.61,6.76t16.64-6.76a25.08,25.08,0,0,0,5.46-16.27,25.23,25.23,0,0,0-5.46-16.21"/></g></g></svg>