<svg xmlns="http://www.w3.org/2000/svg" viewBox="0 0 262.23 94.67"><defs><style>.cls-1{fill:none;stroke:#fffefe;stroke-linecap:round;}.cls-1,.cls-11,.cls-12{stroke-miterlimit:10;}.cls-2{opacity:0.7;}.cls-3{fill:#959393;}.cls-4{fill:#303031;}.cls-5{opacity:0.9;}.cls-6{fill:#191919;}.cls-7{fill:#fffefe;}.cls-11,.cls-12,.cls-8{fill:#fafafa;}.cls-9{fill:#3d3d3d;}.cls-10{opacity:0.95;}.cls-11,.cls-12{stroke:#1d1d1b;}.cls-12{stroke-width:0.5px;}</style></defs><title>Recurso 5</title><g id="Capa_2" data-name="Capa 2"><g id="Capa_1-2" data-name="Capa 1"><path class="cls-1" d="M84.46.52v0L4,.57A3.55,3.55,0,0,0,.5,4.12L.59,72.66h0L29.73,92.38a10.47,10.47,0,0,0,5.84,1.79h66.81a1,1,0,0,0,1-1l-.06-60h0V32L84.46.52"/><g class="cls-2"><polygon class="cls-3" points="34.23 89.96 34.18 33.47 5.25 4.83 5.3 70.39 34.23 89.96"/></g><rect class="cls-4" x="38.67" y="29.97" width="55.46" height="64.6" transform="translate(128.61 -4.2) rotate(89.95)"/><g class="cls-5"><rect class="cls-6" x="12.12" y="0.84" width="62.56" height="73.38" transform="translate(80.89 -5.91) rotate(89.95)"/><path class="cls-7" d="M5.24,70.34,5.18,4.78l76.38-.07.06,65.56ZM8.18,7.78l.06,59.56,70.38-.07L78.57,7.72Z"/></g><path class="cls-8" d="M46.18,55.67,40,55.58q-4.45-.06-6.84-2.45c-1.6-1.6-2.37-3.88-2.33-6.84l.24-17.82q.06-4.44,2.52-6.77a9.47,9.47,0,0,1,6.91-2.27l6.14.09A9.4,9.4,0,0,1,53.49,22a9,9,0,0,1,2.36,6.81l0,2.64a1.09,1.09,0,0,1-1.26,1.22l-4.73-.07c-.79,0-1.18-.42-1.17-1.25l0-2.3A3.52,3.52,0,0,0,48,26.48a3.58,3.58,0,0,0-2.56-.8l-3.83-.05a3.5,3.5,0,0,0-2.52.73,3.5,3.5,0,0,0-.79,2.54L38,46.05a3.51,3.51,0,0,0,.73,2.57,3.43,3.43,0,0,0,2.49.79l3.84.06a3.56,3.56,0,0,0,2.57-.73,3.53,3.53,0,0,0,.8-2.55l0-2.3c0-.83.41-1.23,1.2-1.22l4.73.06A1.1,1.1,0,0,1,55.64,44l0,2.64a9.05,9.05,0,0,1-2.54,6.74A9.41,9.41,0,0,1,46.18,55.67Z"/><g class="cls-2"><polygon class="cls-3" points="98.72 89.97 98.67 33.41 81.53 4.73 81.58 70.32 98.72 89.97"/></g><path class="cls-9" d="M132.78,53.38h-4.32a6.63,6.63,0,0,1-4.84-1.66,6.41,6.41,0,0,1-1.71-4.8V34.34a6.4,6.4,0,0,1,1.71-4.8,6.59,6.59,0,0,1,4.84-1.67h4.32a6.59,6.59,0,0,1,4.82,1.69,6.36,6.36,0,0,1,1.73,4.78V36.2a.77.77,0,0,1-.87.87h-3.34c-.55,0-.83-.29-.83-.87V34.57a2.48,2.48,0,0,0-.54-1.8,2.47,2.47,0,0,0-1.8-.54h-2.7a2.43,2.43,0,0,0-1.77.54,2.53,2.53,0,0,0-.53,1.8V46.68a2.51,2.51,0,0,0,.53,1.8,2.43,2.43,0,0,0,1.77.54H132a2,2,0,0,0,2.34-2.34V45.05c0-.58.28-.87.83-.87h3.34a.77.77,0,0,1,.87.87v1.87a6.4,6.4,0,0,1-1.73,4.78A6.62,6.62,0,0,1,132.78,53.38Z"/><path class="cls-9" d="M146.31,53.38H142.5c-.47,0-.63-.28-.47-.83L148.3,28.7a1.14,1.14,0,0,1,1.19-.83h5.27a1.07,1.07,0,0,1,1.19.83l6.27,23.85c.16.55,0,.83-.47.83h-3.81a.8.8,0,0,1-.6-.18,1.42,1.42,0,0,1-.24-.65L156,48.18h-7.73l-1.12,4.37a1.14,1.14,0,0,1-.25.65A.79.79,0,0,1,146.31,53.38Zm5.75-20.71-2.85,11.47h5.87l-2.86-11.47Z"/><path class="cls-9" d="M169.88,53.38h-3.29a.74.74,0,0,1-.84-.83V28.7a.74.74,0,0,1,.84-.83h3a1.11,1.11,0,0,1,1.11.55l8,15h.16V28.7a.73.73,0,0,1,.83-.83H183a.74.74,0,0,1,.84.83V52.55a.74.74,0,0,1-.84.83h-2.89a1.31,1.31,0,0,1-1.27-.79l-7.94-14.76h-.16V52.55A.74.74,0,0,1,169.88,53.38Z"/><path class="cls-9" d="M194.2,28.7V52.55a.74.74,0,0,1-.83.83H190a.74.74,0,0,1-.84-.83V28.7a.74.74,0,0,1,.84-.83h3.37A.74.74,0,0,1,194.2,28.7Z"/><path class="cls-9" d="M202.22,53.38h-3.81c-.48,0-.64-.28-.48-.83L204.2,28.7a1.14,1.14,0,0,1,1.19-.83h5.28a1.07,1.07,0,0,1,1.19.83l6.27,23.85c.16.55,0,.83-.48.83h-3.81a.76.76,0,0,1-.59-.18,1.22,1.22,0,0,1-.24-.65l-1.11-4.37h-7.74l-1.11,4.37a1.13,1.13,0,0,1-.26.65A.78.78,0,0,1,202.22,53.38ZM208,32.67l-2.86,11.47H211l-2.86-11.47Z"/><path class="cls-9" d="M221.66,52.55V28.7a.74.74,0,0,1,.83-.83h9.8a6.57,6.57,0,0,1,4.82,1.69,6.36,6.36,0,0,1,1.73,4.78V46.92a6.4,6.4,0,0,1-1.73,4.78,6.61,6.61,0,0,1-4.82,1.68h-9.8A.74.74,0,0,1,221.66,52.55ZM227.13,49h4.33a2,2,0,0,0,2.34-2.34V34.57a2.48,2.48,0,0,0-.54-1.8,2.45,2.45,0,0,0-1.8-.54h-4.33a.38.38,0,0,0-.43.44V48.58A.38.38,0,0,0,227.13,49Z"/><path class="cls-9" d="M246.26,53.38h-3.81c-.48,0-.64-.28-.48-.83l6.27-23.85a1.14,1.14,0,0,1,1.19-.83h5.28a1.07,1.07,0,0,1,1.19.83l6.27,23.85c.16.55,0,.83-.48.83h-3.81a.76.76,0,0,1-.59-.18,1.22,1.22,0,0,1-.24-.65l-1.11-4.37H248.2l-1.11,4.37a1.13,1.13,0,0,1-.26.65A.78.78,0,0,1,246.26,53.38ZM252,32.67l-2.86,11.47H255l-2.86-11.47Z"/><g class="cls-10"><path class="cls-11" d="M130.45,49.1h-4.33a6.61,6.61,0,0,1-4.84-1.67,6.43,6.43,0,0,1-1.7-4.8V30.06a6.47,6.47,0,0,1,1.7-4.81,6.64,6.64,0,0,1,4.84-1.66h4.33a6.62,6.62,0,0,1,4.82,1.68A6.4,6.4,0,0,1,137,30.06v1.86a.78.78,0,0,1-.88.87h-3.33c-.56,0-.83-.29-.83-.87V30.29a2.48,2.48,0,0,0-.54-1.8,2.48,2.48,0,0,0-1.8-.54h-2.7a2.43,2.43,0,0,0-1.77.54,2.48,2.48,0,0,0-.53,1.8V42.4a2.48,2.48,0,0,0,.53,1.8,2.43,2.43,0,0,0,1.77.54h2.7A2,2,0,0,0,132,42.4V40.77c0-.58.27-.87.83-.87h3.33a.78.78,0,0,1,.88.87v1.86a6.36,6.36,0,0,1-1.73,4.78A6.59,6.59,0,0,1,130.45,49.1Z"/><path class="cls-11" d="M144,49.1h-3.81c-.48,0-.63-.28-.48-.83L146,24.42a1.14,1.14,0,0,1,1.19-.83h5.28a1.07,1.07,0,0,1,1.19.83l6.27,23.85c.16.55,0,.83-.48.83H155.6a.76.76,0,0,1-.59-.18,1.26,1.26,0,0,1-.24-.65l-1.11-4.37h-7.74l-1.11,4.37a1.17,1.17,0,0,1-.26.65A.78.78,0,0,1,144,49.1Zm5.75-20.71-2.86,11.47h5.88l-2.86-11.47Z"/><path class="cls-11" d="M167.55,49.1h-3.3a.74.74,0,0,1-.83-.83V24.42a.74.74,0,0,1,.83-.83h3a1.11,1.11,0,0,1,1.11.55l8,15h.15V24.42a.74.74,0,0,1,.84-.83h3.29a.73.73,0,0,1,.83.83V48.27a.73.73,0,0,1-.83.83h-2.89a1.33,1.33,0,0,1-1.28-.79l-7.93-14.76h-.16V48.27A.74.74,0,0,1,167.55,49.1Z"/><path class="cls-11" d="M191.87,24.42V48.27a.74.74,0,0,1-.83.83h-3.38a.74.74,0,0,1-.83-.83V24.42a.74.74,0,0,1,.83-.83H191A.74.74,0,0,1,191.87,24.42Z"/><path class="cls-11" d="M199.88,49.1h-3.8c-.48,0-.64-.28-.48-.83l6.27-23.85a1.14,1.14,0,0,1,1.19-.83h5.27a1.08,1.08,0,0,1,1.2.83l6.26,23.85c.16.55,0,.83-.47.83h-3.81a.8.8,0,0,1-.6-.18,1.37,1.37,0,0,1-.23-.65l-1.11-4.37h-7.74l-1.11,4.37a1.24,1.24,0,0,1-.26.65A.79.79,0,0,1,199.88,49.1Zm5.76-20.71-2.86,11.47h5.87L205.8,28.39Z"/><path class="cls-11" d="M219.33,48.27V24.42a.73.73,0,0,1,.83-.83H230a6.62,6.62,0,0,1,4.82,1.68,6.4,6.4,0,0,1,1.73,4.79V42.63a6.36,6.36,0,0,1-1.73,4.78A6.59,6.59,0,0,1,230,49.1h-9.8A.73.73,0,0,1,219.33,48.27Zm5.47-3.53h4.33a2,2,0,0,0,2.34-2.34V30.29a2.48,2.48,0,0,0-.54-1.8,2.47,2.47,0,0,0-1.8-.54H224.8a.38.38,0,0,0-.43.44V44.3A.38.38,0,0,0,224.8,44.74Z"/><path class="cls-11" d="M243.93,49.1h-3.81c-.48,0-.64-.28-.48-.83l6.27-23.85a1.14,1.14,0,0,1,1.19-.83h5.28a1.07,1.07,0,0,1,1.19.83l6.27,23.85c.16.55,0,.83-.48.83h-3.81a.76.76,0,0,1-.59-.18,1.26,1.26,0,0,1-.24-.65l-1.11-4.37h-7.74l-1.11,4.37a1.17,1.17,0,0,1-.26.65A.78.78,0,0,1,243.93,49.1Zm5.75-20.71-2.86,11.47h5.88l-2.86-11.47Z"/></g><path class="cls-9" d="M139.84,75.21h-1.6a.34.34,0,0,1-.39-.39V63.54a.35.35,0,0,1,.39-.4h4.47A3.12,3.12,0,0,1,145,64a3,3,0,0,1,.83,2.27v1.47a2.74,2.74,0,0,1-1.67,2.81v.08l2,4.18c.12.3,0,.45-.31.45h-1.53a1.15,1.15,0,0,1-.48-.07.57.57,0,0,1-.25-.32l-1.87-4.06h-1.26c-.15,0-.23.07-.23.21v3.85A.34.34,0,0,1,139.84,75.21Zm.6-6.36h1.84a1.28,1.28,0,0,0,.88-.25,1,1,0,0,0,.28-.82V66.32a1.12,1.12,0,0,0-.28-.85,1.28,1.28,0,0,0-.88-.26h-1.84a.18.18,0,0,0-.21.2v3.23A.19.19,0,0,0,140.44,68.85Z"/><path class="cls-9" d="M152.51,75.21h-1.67a3.16,3.16,0,0,1-2.29-.78,3.05,3.05,0,0,1-.81-2.28V68.7a3,3,0,0,1,.81-2.27,3.12,3.12,0,0,1,2.29-.79h1.67a3.12,3.12,0,0,1,2.28.8,3,3,0,0,1,.82,2.26v3.45a3,3,0,0,1-.82,2.27A3.11,3.11,0,0,1,152.51,75.21Zm-1.31-2h1a1.2,1.2,0,0,0,.86-.25,1.13,1.13,0,0,0,.25-.84V68.77a1.13,1.13,0,0,0-.25-.84,1.25,1.25,0,0,0-.86-.24h-1a1.2,1.2,0,0,0-.85.24,1.17,1.17,0,0,0-.24.84v3.31a1.17,1.17,0,0,0,.24.84A1.15,1.15,0,0,0,151.2,73.17Z"/><path class="cls-9" d="M159.47,77.77h-1.59a.35.35,0,0,1-.4-.38V66a.35.35,0,0,1,.4-.39h1.59a.35.35,0,0,1,.4.39v.62h.07a1.44,1.44,0,0,1,.74-.76,2.49,2.49,0,0,1,1.1-.25h.77a2.84,2.84,0,0,1,2.19.79,3.2,3.2,0,0,1,.74,2.27v3.45a3.24,3.24,0,0,1-.74,2.28,2.87,2.87,0,0,1-2.19.78h-.77a2.49,2.49,0,0,1-1.1-.25,1.41,1.41,0,0,1-.74-.76h-.07v3.19C159.87,77.64,159.74,77.77,159.47,77.77Zm1.69-4.62H162A.94.94,0,0,0,163.1,72V68.81a1.17,1.17,0,0,0-.26-.85,1.15,1.15,0,0,0-.85-.26h-.83c-.86,0-1.29.48-1.29,1.43v2.59C159.87,72.67,160.3,73.15,161.16,73.15Z"/><path class="cls-9" d="M170.72,75.21h-.45a3.16,3.16,0,0,1-2.29-.78,3.05,3.05,0,0,1-.81-2.28V68.7a3,3,0,0,1,.81-2.27,3.12,3.12,0,0,1,2.29-.79h4.34c.27,0,.41.13.41.39v8.79c0,.26-.14.39-.41.39H173a.35.35,0,0,1-.4-.39V74.2h-.07a1.43,1.43,0,0,1-.73.76A2.5,2.5,0,0,1,170.72,75.21Zm1.91-3.49V67.91c0-.14-.07-.21-.22-.21h-1.76a1.14,1.14,0,0,0-.85.26,1.22,1.22,0,0,0-.24.85V72a1.25,1.25,0,0,0,.24.86,1.18,1.18,0,0,0,.85.25h.69C172.2,73.15,172.63,72.67,172.63,71.72Z"/><path class="cls-9" d="M181.31,64V62.39a.32.32,0,0,1,.37-.37h1.64c.25,0,.37.12.37.35V64c0,.26-.12.38-.37.38h-1.64C181.43,64.4,181.31,64.28,181.31,64Zm0,10.8V66c0-.26.12-.39.37-.39h1.62a.34.34,0,0,1,.39.39v8.79a.48.48,0,0,1-.08.32.46.46,0,0,1-.29.07H181.7A.34.34,0,0,1,181.31,74.82Z"/><path class="cls-9" d="M187.84,75.21h-1.6a.34.34,0,0,1-.39-.39V66a.34.34,0,0,1,.39-.39h1.6a.34.34,0,0,1,.39.39v.62h.08a1.76,1.76,0,0,1,1.84-1h.6q3,0,2.95,3.06v6.12q0,.39-.42.39h-1.57a.35.35,0,0,1-.4-.39v-6a.94.94,0,0,0-1.1-1.11h-.68c-.86,0-1.3.48-1.3,1.43v5.69A.34.34,0,0,1,187.84,75.21Z"/><path class="cls-9" d="M199.14,65.64h1.5a.46.46,0,0,1,.31.08A.4.4,0,0,1,201,66v1.3a.35.35,0,0,1-.4.39h-1.5c-.14,0-.2.07-.2.21v6.91q0,.39-.42.39H197a.35.35,0,0,1-.4-.39V67.91c0-.14-.07-.21-.22-.21h-.87a.34.34,0,0,1-.39-.39V66a.38.38,0,0,1,.08-.29.48.48,0,0,1,.31-.08h.87c.15,0,.22-.07.22-.21v-.35a3.12,3.12,0,0,1,.78-2.28,3.06,3.06,0,0,1,2.26-.78h1.07c.15,0,.25,0,.3.08a.44.44,0,0,1,.08.29v1.3a.34.34,0,0,1-.38.39H200a1.1,1.1,0,0,0-.82.25,1.37,1.37,0,0,0-.21.86v.24C198.94,65.57,199,65.64,199.14,65.64Z"/><path class="cls-9" d="M206.9,75.21h-1.68a3.16,3.16,0,0,1-2.29-.78,3.09,3.09,0,0,1-.8-2.28V68.7a3,3,0,0,1,.8-2.27,3.12,3.12,0,0,1,2.29-.79h1.68a3.15,3.15,0,0,1,2.28.8A3,3,0,0,1,210,68.7v3.45a3.06,3.06,0,0,1-.81,2.27A3.15,3.15,0,0,1,206.9,75.21Zm-1.32-2h1a1.17,1.17,0,0,0,.85-.25,1.12,1.12,0,0,0,.26-.84V68.77a1.12,1.12,0,0,0-.26-.84,1.22,1.22,0,0,0-.85-.24h-1a1.17,1.17,0,0,0-.84.24,1.13,1.13,0,0,0-.25.84v3.31a.92.92,0,0,0,1.09,1.09Z"/><path class="cls-9" d="M213.86,75.21h-1.6a.34.34,0,0,1-.39-.39V66a.34.34,0,0,1,.39-.39h1.6a.34.34,0,0,1,.39.39v.64h.08a1.48,1.48,0,0,1,.73-.77,2.51,2.51,0,0,1,1.11-.26h.68c.25,0,.37.13.37.39v1.3a.48.48,0,0,1-.08.31.33.33,0,0,1-.29.06h-1.3c-.86,0-1.3.49-1.3,1.47v5.65A.34.34,0,0,1,213.86,75.21Z"/><path class="cls-9" d="M220.41,75.21h-1.59a.35.35,0,0,1-.4-.39V66a.35.35,0,0,1,.4-.39h1.59a.35.35,0,0,1,.4.39v.62h.07a1.68,1.68,0,0,1,.76-.73,2.59,2.59,0,0,1,1.23-.28h.53a2.5,2.5,0,0,1,2.34,1.2,2.29,2.29,0,0,1,2.2-1.2h.54a2.84,2.84,0,0,1,2.19.79,3.15,3.15,0,0,1,.74,2.27v6.12a.34.34,0,0,1-.39.39h-1.6a.34.34,0,0,1-.39-.39v-6a1.17,1.17,0,0,0-.25-.85,1.12,1.12,0,0,0-.84-.26h-.47c-.86,0-1.29.49-1.29,1.45v5.67q0,.39-.42.39h-1.57a.35.35,0,0,1-.4-.39v-6a1.17,1.17,0,0,0-.25-.85,1.19,1.19,0,0,0-.86-.26h-.58c-.86,0-1.29.48-1.29,1.43v5.69A.35.35,0,0,1,220.41,75.21Z"/><path class="cls-9" d="M236.76,75.21h-.45a3.16,3.16,0,0,1-2.29-.78,3,3,0,0,1-.8-2.28V68.7a3,3,0,0,1,.8-2.27,3.12,3.12,0,0,1,2.29-.79h4.34c.28,0,.41.13.41.39v8.79c0,.26-.13.39-.41.39h-1.58a.34.34,0,0,1-.39-.39V74.2h-.08a1.39,1.39,0,0,1-.73.76A2.5,2.5,0,0,1,236.76,75.21Zm1.92-3.49V67.91c0-.14-.08-.21-.23-.21h-1.76a1.17,1.17,0,0,0-.85.26,1.22,1.22,0,0,0-.24.85V72a1.25,1.25,0,0,0,.24.86,1.21,1.21,0,0,0,.85.25h.69C238.25,73.15,238.68,72.67,238.68,71.72Z"/><path class="cls-9" d="M245.21,75.21h-1.59a.35.35,0,0,1-.4-.39V62.41a.35.35,0,0,1,.4-.39h1.59a.35.35,0,0,1,.4.39V74.82A.35.35,0,0,1,245.21,75.21Z"/><path class="cls-12" d="M138.7,73.64h-1.59a.34.34,0,0,1-.39-.39V62a.35.35,0,0,1,.39-.4h4.47a3.14,3.14,0,0,1,2.29.81,3,3,0,0,1,.82,2.27v1.46A2.73,2.73,0,0,1,143,68.93V69l2,4.18c.11.3,0,.45-.32.45h-1.52a1.21,1.21,0,0,1-.49-.07.56.56,0,0,1-.24-.32l-1.88-4.06h-1.26c-.15,0-.22.07-.22.21v3.85A.35.35,0,0,1,138.7,73.64Zm.61-6.36h1.84A1.28,1.28,0,0,0,142,67a1,1,0,0,0,.28-.81V64.74a1.09,1.09,0,0,0-.28-.84,1.24,1.24,0,0,0-.88-.26h-1.84a.18.18,0,0,0-.21.2v3.23A.19.19,0,0,0,139.31,67.28Z"/><path class="cls-12" d="M151.38,73.64h-1.67a3.11,3.11,0,0,1-2.29-.79,3,3,0,0,1-.81-2.27V67.13a3,3,0,0,1,.81-2.27,3.11,3.11,0,0,1,2.29-.79h1.67a3.11,3.11,0,0,1,2.28.8,3,3,0,0,1,.82,2.26v3.45a3.06,3.06,0,0,1-.82,2.27A3.15,3.15,0,0,1,151.38,73.64Zm-1.32-2h1a1.2,1.2,0,0,0,.85-.25,1.12,1.12,0,0,0,.26-.84V67.2a1.12,1.12,0,0,0-.26-.84,1.2,1.2,0,0,0-.85-.25h-1A.92.92,0,0,0,149,67.2v3.31a.92.92,0,0,0,1.09,1.09Z"/><path class="cls-12" d="M158.34,76.2h-1.59c-.27,0-.4-.13-.4-.38V64.46a.35.35,0,0,1,.4-.39h1.59a.35.35,0,0,1,.4.39v.62h.07a1.43,1.43,0,0,1,.73-.76,2.5,2.5,0,0,1,1.11-.25h.77a2.87,2.87,0,0,1,2.19.79,3.2,3.2,0,0,1,.74,2.27v3.45a3.2,3.2,0,0,1-.74,2.27,2.87,2.87,0,0,1-2.19.79h-.77a2.5,2.5,0,0,1-1.11-.25,1.43,1.43,0,0,1-.73-.76h-.07v3.19A.35.35,0,0,1,158.34,76.2ZM160,71.58h.83a1.17,1.17,0,0,0,.85-.26,1.15,1.15,0,0,0,.25-.85V67.24a.94.94,0,0,0-1.1-1.11H160c-.86,0-1.29.48-1.29,1.43v2.59C158.74,71.1,159.17,71.58,160,71.58Z"/><path class="cls-12" d="M169.59,73.64h-.45a3.11,3.11,0,0,1-2.29-.79,3,3,0,0,1-.81-2.27V67.13a3,3,0,0,1,.81-2.27,3.11,3.11,0,0,1,2.29-.79h4.33q.42,0,.42.39v8.79q0,.39-.42.39H171.9a.35.35,0,0,1-.4-.39v-.62h-.07a1.44,1.44,0,0,1-.74.76A2.46,2.46,0,0,1,169.59,73.64Zm1.91-3.49V66.34c0-.14-.07-.21-.22-.21h-1.77a1.12,1.12,0,0,0-.84.26,1.17,1.17,0,0,0-.25.85v3.23a1.15,1.15,0,0,0,.25.85,1.12,1.12,0,0,0,.84.26h.7C171.07,71.58,171.5,71.1,171.5,70.15Z"/><path class="cls-12" d="M180.17,62.45V60.82a.34.34,0,0,1,.38-.38h1.63c.25,0,.38.12.38.36v1.65a.34.34,0,0,1-.38.38h-1.63A.34.34,0,0,1,180.17,62.45Zm0,10.8V64.46a.34.34,0,0,1,.38-.39h1.61a.35.35,0,0,1,.4.39v8.79a.31.31,0,0,1-.38.39h-1.61A.35.35,0,0,1,180.17,73.25Z"/><path class="cls-12" d="M186.71,73.64h-1.6a.34.34,0,0,1-.39-.39V64.46a.34.34,0,0,1,.39-.39h1.6a.34.34,0,0,1,.39.39v.62h.08a1.76,1.76,0,0,1,1.84-1h.6q2.94,0,2.94,3.06v6.12c0,.26-.13.39-.41.39h-1.58a.34.34,0,0,1-.39-.39v-6a1.17,1.17,0,0,0-.25-.85,1.19,1.19,0,0,0-.86-.26h-.67c-.87,0-1.3.48-1.3,1.43v5.69A.34.34,0,0,1,186.71,73.64Z"/><path class="cls-12" d="M198,64.07h1.5a.48.48,0,0,1,.31.08.4.4,0,0,1,.08.29v1.3a.34.34,0,0,1-.39.39H198a.19.19,0,0,0-.21.21v6.91c0,.26-.14.39-.41.39h-1.58a.34.34,0,0,1-.39-.39V66.34c0-.14-.08-.21-.23-.21h-.86a.34.34,0,0,1-.39-.39v-1.3c0-.15,0-.25.08-.3a.49.49,0,0,1,.31-.07h.86c.15,0,.23-.07.23-.21v-.35a3.12,3.12,0,0,1,.78-2.28,3.06,3.06,0,0,1,2.26-.79h1.07a.38.38,0,0,1,.3.09.44.44,0,0,1,.07.29v1.3c0,.26-.12.39-.37.39h-.69a1,1,0,0,0-.82.25,1.31,1.31,0,0,0-.22.86v.24A.19.19,0,0,0,198,64.07Z"/><path class="cls-12" d="M205.76,73.64h-1.67a3.12,3.12,0,0,1-2.29-.79,3,3,0,0,1-.81-2.27V67.13a3,3,0,0,1,.81-2.27,3.12,3.12,0,0,1,2.29-.79h1.67a3.08,3.08,0,0,1,2.28.8,3,3,0,0,1,.82,2.26v3.45a3,3,0,0,1-.82,2.27A3.11,3.11,0,0,1,205.76,73.64Zm-1.31-2h1a1.21,1.21,0,0,0,.85-.25,1.13,1.13,0,0,0,.25-.84V67.2a1.13,1.13,0,0,0-.25-.84,1.21,1.21,0,0,0-.85-.25h-1a1.21,1.21,0,0,0-.85.25,1.17,1.17,0,0,0-.24.84v3.31a1.17,1.17,0,0,0,.24.84A1.21,1.21,0,0,0,204.45,71.6Z"/><path class="cls-12" d="M212.73,73.64h-1.6a.34.34,0,0,1-.39-.39V64.46a.34.34,0,0,1,.39-.39h1.6a.34.34,0,0,1,.39.39v.64h.08a1.44,1.44,0,0,1,.73-.77,2.51,2.51,0,0,1,1.11-.26h.67a.34.34,0,0,1,.38.39v1.3a.43.43,0,0,1-.09.31.34.34,0,0,1-.29.06h-1.29c-.87,0-1.3.49-1.3,1.47v5.65A.34.34,0,0,1,212.73,73.64Z"/><path class="cls-12" d="M219.28,73.64h-1.6a.34.34,0,0,1-.39-.39V64.46a.34.34,0,0,1,.39-.39h1.6a.34.34,0,0,1,.39.39v.62h.08a1.68,1.68,0,0,1,.76-.73,2.57,2.57,0,0,1,1.23-.28h.52a2.51,2.51,0,0,1,2.35,1.2,2.29,2.29,0,0,1,2.2-1.2h.54a2.87,2.87,0,0,1,2.19.79,3.2,3.2,0,0,1,.74,2.27v6.12a.34.34,0,0,1-.39.39h-1.6a.34.34,0,0,1-.39-.39v-6a1.21,1.21,0,0,0-.25-.85,1.12,1.12,0,0,0-.84-.26h-.47c-.87,0-1.3.49-1.3,1.45v5.67c0,.26-.14.39-.41.39h-1.58a.34.34,0,0,1-.39-.39v-6a1.17,1.17,0,0,0-.26-.85,1.15,1.15,0,0,0-.85-.26H221c-.86,0-1.3.48-1.3,1.43v5.69A.34.34,0,0,1,219.28,73.64Z"/><path class="cls-12" d="M235.63,73.64h-.45a3.12,3.12,0,0,1-2.29-.79,3,3,0,0,1-.81-2.27V67.13a3,3,0,0,1,.81-2.27,3.12,3.12,0,0,1,2.29-.79h4.34c.27,0,.41.13.41.39v8.79c0,.26-.14.39-.41.39h-1.58a.34.34,0,0,1-.39-.39v-.62h-.08a1.43,1.43,0,0,1-.73.76A2.5,2.5,0,0,1,235.63,73.64Zm1.92-3.49V66.34c0-.14-.08-.21-.23-.21h-1.76a1.14,1.14,0,0,0-.85.26,1.22,1.22,0,0,0-.24.85v3.23a1.2,1.2,0,0,0,.24.85,1.14,1.14,0,0,0,.85.26h.69C237.11,71.58,237.55,71.1,237.55,70.15Z"/><path class="cls-12" d="M244.08,73.64h-1.6a.34.34,0,0,1-.39-.39V60.84a.35.35,0,0,1,.39-.4h1.6a.35.35,0,0,1,.39.4V73.25A.34.34,0,0,1,244.08,73.64Z"/></g></g></svg>