<svg xmlns="http://www.w3.org/2000/svg" viewBox="0 0 143.28 58.75"><defs><style>.cls-1,.cls-4{fill:#afafaf;stroke:#afafaf;stroke-width:0.25px;}.cls-1,.cls-3,.cls-4{stroke-miterlimit:10;}.cls-2,.cls-5{opacity:0.95;}.cls-3,.cls-5{fill:#191919;}.cls-3{stroke:#222323;}.cls-4,.cls-5{font-size:18.77px;font-family:Rajdhani-Bold, Rajdhani;font-weight:700;}</style></defs><title>Recurso 4</title><g id="Capa_2" data-name="Capa 2"><g id="Capa_1-2" data-name="Capa 1"><path class="cls-1" d="M13.7,30.29H9.38a6.64,6.64,0,0,1-4.84-1.66,6.4,6.4,0,0,1-1.71-4.8V11.25a6.4,6.4,0,0,1,1.71-4.8A6.65,6.65,0,0,1,9.38,4.78H13.7a6.57,6.57,0,0,1,4.82,1.69,6.34,6.34,0,0,1,1.73,4.78v1.86a.77.77,0,0,1-.87.88H16.05c-.56,0-.84-.29-.84-.88V11.49a2.54,2.54,0,0,0-.53-1.81,2.5,2.5,0,0,0-1.81-.53h-2.7a2.39,2.39,0,0,0-1.76.53,2.49,2.49,0,0,0-.54,1.81v12.1a2.45,2.45,0,0,0,.54,1.8,2.39,2.39,0,0,0,1.76.54h2.7a2.49,2.49,0,0,0,1.81-.54,2.5,2.5,0,0,0,.53-1.8V22a.76.76,0,0,1,.84-.87h3.33a.77.77,0,0,1,.87.87v1.87a6.36,6.36,0,0,1-1.73,4.78A6.61,6.61,0,0,1,13.7,30.29Z"/><path class="cls-1" d="M27.23,30.29h-3.8c-.48,0-.64-.27-.48-.83L29.22,5.61a1.14,1.14,0,0,1,1.19-.83h5.28a1.08,1.08,0,0,1,1.19.83l6.26,23.85c.16.56,0,.83-.47.83H38.86a.84.84,0,0,1-.6-.17,1.41,1.41,0,0,1-.23-.66L36.92,25.1H29.18l-1.11,4.36a1.29,1.29,0,0,1-.26.66A.84.84,0,0,1,27.23,30.29ZM33,9.58,30.13,21.05H36L33.15,9.58Z"/><path class="cls-1" d="M50.8,30.29H47.51a.73.73,0,0,1-.83-.83V5.61a.73.73,0,0,1,.83-.83h3a1.14,1.14,0,0,1,1.12.56l8,15h.16V5.61a.74.74,0,0,1,.83-.83h3.3a.74.74,0,0,1,.83.83V29.46a.73.73,0,0,1-.83.83H61a1.32,1.32,0,0,1-1.27-.79L51.79,14.74h-.15V29.46A.74.74,0,0,1,50.8,30.29Z"/><path class="cls-1" d="M75.12,5.61V29.46a.73.73,0,0,1-.83.83H70.92a.73.73,0,0,1-.83-.83V5.61a.73.73,0,0,1,.83-.83h3.37A.73.73,0,0,1,75.12,5.61Z"/><path class="cls-1" d="M83.14,30.29H79.33c-.48,0-.63-.27-.48-.83L85.12,5.61a1.14,1.14,0,0,1,1.19-.83h5.28a1.07,1.07,0,0,1,1.19.83l6.27,23.85c.16.56,0,.83-.48.83h-3.8a.81.81,0,0,1-.6-.17,1.3,1.3,0,0,1-.24-.66L92.82,25.1H85.08L84,29.46a1.2,1.2,0,0,1-.26.66A.81.81,0,0,1,83.14,30.29ZM88.89,9.58,86,21.05h5.87L89.05,9.58Z"/><path class="cls-1" d="M102.58,29.46V5.61a.74.74,0,0,1,.83-.83h9.81A6.59,6.59,0,0,1,118,6.47a6.38,6.38,0,0,1,1.72,4.78V23.83A6.39,6.39,0,0,1,118,28.61a6.62,6.62,0,0,1-4.82,1.68h-9.81A.73.73,0,0,1,102.58,29.46Zm5.48-3.53h4.32a2.49,2.49,0,0,0,1.81-.54,2.5,2.5,0,0,0,.53-1.8V11.49a2.54,2.54,0,0,0-.53-1.81,2.5,2.5,0,0,0-1.81-.53h-4.32a.38.38,0,0,0-.44.43V25.49A.39.39,0,0,0,108.06,25.93Z"/><path class="cls-1" d="M127.18,30.29h-3.81c-.47,0-.63-.27-.47-.83l6.27-23.85a1.14,1.14,0,0,1,1.19-.83h5.27a1.07,1.07,0,0,1,1.19.83l6.27,23.85c.16.56,0,.83-.47.83h-3.81a.84.84,0,0,1-.6-.17,1.52,1.52,0,0,1-.24-.66l-1.11-4.36h-7.73L128,29.46a1.21,1.21,0,0,1-.25.66A.84.84,0,0,1,127.18,30.29Zm5.76-20.71-2.86,11.47H136L133.09,9.58Z"/><g class="cls-2"><path class="cls-3" d="M11.37,26H7.05a6.63,6.63,0,0,1-4.84-1.66A6.4,6.4,0,0,1,.5,19.55V7a6.4,6.4,0,0,1,1.71-4.8A6.63,6.63,0,0,1,7.05.5h4.32a6.59,6.59,0,0,1,4.82,1.69A6.36,6.36,0,0,1,17.92,7V8.83a.78.78,0,0,1-.87.88H13.71c-.55,0-.83-.3-.83-.88V7.21a2.49,2.49,0,0,0-.54-1.81,2.47,2.47,0,0,0-1.8-.54H7.84a2.43,2.43,0,0,0-1.77.54,2.54,2.54,0,0,0-.53,1.81v12.1a2.51,2.51,0,0,0,.53,1.8,2.43,2.43,0,0,0,1.77.54h2.7a2.47,2.47,0,0,0,1.8-.54,2.47,2.47,0,0,0,.54-1.8V17.68c0-.58.28-.87.83-.87h3.34a.77.77,0,0,1,.87.87v1.87a6.4,6.4,0,0,1-1.73,4.78A6.62,6.62,0,0,1,11.37,26Z"/><path class="cls-3" d="M24.9,26H21.09c-.47,0-.63-.27-.47-.83L26.89,1.33A1.14,1.14,0,0,1,28.08.5h5.27a1.07,1.07,0,0,1,1.19.83l6.27,23.85c.16.56,0,.83-.47.83H36.53a.8.8,0,0,1-.6-.18,1.42,1.42,0,0,1-.24-.65l-1.11-4.36H26.85l-1.12,4.36a1.14,1.14,0,0,1-.25.65A.79.79,0,0,1,24.9,26ZM30.66,5.3,27.8,16.77h5.87L30.81,5.3Z"/><path class="cls-3" d="M48.47,26H45.18a.74.74,0,0,1-.84-.83V1.33A.74.74,0,0,1,45.18.5h3a1.11,1.11,0,0,1,1.11.56l8,15h.16V1.33A.73.73,0,0,1,58.27.5h3.29a.74.74,0,0,1,.84.83V25.18a.74.74,0,0,1-.84.83H58.67a1.31,1.31,0,0,1-1.27-.79L49.46,10.46H49.3V25.18A.73.73,0,0,1,48.47,26Z"/><path class="cls-3" d="M72.79,1.33V25.18A.73.73,0,0,1,72,26H68.59a.74.74,0,0,1-.84-.83V1.33A.74.74,0,0,1,68.59.5H72A.74.74,0,0,1,72.79,1.33Z"/><path class="cls-3" d="M80.81,26H77c-.48,0-.64-.27-.48-.83L82.79,1.33A1.14,1.14,0,0,1,84,.5h5.28a1.07,1.07,0,0,1,1.19.83l6.27,23.85c.16.56,0,.83-.48.83H92.43a.76.76,0,0,1-.59-.18,1.22,1.22,0,0,1-.24-.65l-1.11-4.36H82.75l-1.11,4.36a1.13,1.13,0,0,1-.26.65A.78.78,0,0,1,80.81,26ZM86.56,5.3,83.7,16.77h5.88L86.72,5.3Z"/><path class="cls-3" d="M100.25,25.18V1.33a.74.74,0,0,1,.83-.83h9.8a6.57,6.57,0,0,1,4.82,1.69A6.36,6.36,0,0,1,117.43,7V19.55a6.4,6.4,0,0,1-1.73,4.78A6.61,6.61,0,0,1,110.88,26h-9.8A.73.73,0,0,1,100.25,25.18Zm5.47-3.53h4.33a2.45,2.45,0,0,0,1.8-.54,2.47,2.47,0,0,0,.54-1.8V7.21a2.49,2.49,0,0,0-.54-1.81,2.45,2.45,0,0,0-1.8-.54h-4.33a.38.38,0,0,0-.43.44V21.21A.38.38,0,0,0,105.72,21.65Z"/><path class="cls-3" d="M124.85,26H121c-.48,0-.63-.27-.48-.83l6.27-23.85A1.14,1.14,0,0,1,128,.5h5.28a1.07,1.07,0,0,1,1.19.83l6.27,23.85c.16.56,0,.83-.48.83h-3.81a.76.76,0,0,1-.59-.18,1.22,1.22,0,0,1-.24-.65l-1.11-4.36h-7.74l-1.11,4.36a1.13,1.13,0,0,1-.26.65A.78.78,0,0,1,124.85,26ZM130.6,5.3l-2.85,11.47h5.87L130.76,5.3Z"/></g><text class="cls-4" transform="translate(17.55 52.13)">Ropa informal</text><text class="cls-5" transform="translate(16.42 50.55)">Ropa informal</text></g></g></svg>