<svg xmlns="http://www.w3.org/2000/svg" viewBox="0 0 103.85 94.67"><defs><style>.cls-1{fill:none;stroke:#fffefe;stroke-linecap:round;stroke-miterlimit:10;}.cls-2{opacity:0.7;}.cls-3{fill:#959393;}.cls-4{fill:#303031;}.cls-5{opacity:0.9;}.cls-6{fill:#191919;}.cls-7{fill:#fffefe;}.cls-8{fill:#fafafa;}</style></defs><title>Recurso 6</title><g id="Capa_2" data-name="Capa 2"><g id="Capa_1-2" data-name="Capa 1"><path class="cls-1" d="M84.46.52v0L4,.57A3.55,3.55,0,0,0,.5,4.12L.59,72.66h0L29.73,92.38a10.47,10.47,0,0,0,5.84,1.79h66.81a1,1,0,0,0,1-1l-.06-60h0V32L84.46.52"/><g class="cls-2"><polygon class="cls-3" points="34.23 89.96 34.18 33.47 5.25 4.83 5.3 70.39 34.23 89.96"/></g><rect class="cls-4" x="38.67" y="29.97" width="55.46" height="64.6" transform="translate(128.61 -4.2) rotate(89.95)"/><g class="cls-5"><rect class="cls-6" x="12.12" y="0.84" width="62.56" height="73.38" transform="translate(80.89 -5.91) rotate(89.95)"/><path class="cls-7" d="M5.24,70.34,5.18,4.78l76.38-.07.06,65.56ZM8.18,7.78l.06,59.56,70.38-.07L78.57,7.72Z"/></g><path class="cls-8" d="M46.18,55.67,40,55.58q-4.45-.06-6.84-2.45c-1.6-1.6-2.37-3.88-2.33-6.84l.24-17.82q.06-4.44,2.52-6.77a9.47,9.47,0,0,1,6.91-2.27l6.14.09A9.4,9.4,0,0,1,53.49,22a9,9,0,0,1,2.36,6.81l0,2.64a1.09,1.09,0,0,1-1.26,1.22l-4.73-.07c-.79,0-1.18-.42-1.17-1.25l0-2.3A3.52,3.52,0,0,0,48,26.48a3.58,3.58,0,0,0-2.56-.8l-3.83-.05a3.5,3.5,0,0,0-2.52.73,3.5,3.5,0,0,0-.79,2.54L38,46.05a3.51,3.51,0,0,0,.73,2.57,3.43,3.43,0,0,0,2.49.79l3.84.06a3.56,3.56,0,0,0,2.57-.73,3.53,3.53,0,0,0,.8-2.55l0-2.3c0-.83.41-1.23,1.2-1.22l4.73.06A1.1,1.1,0,0,1,55.64,44l0,2.64a9.05,9.05,0,0,1-2.54,6.74A9.41,9.41,0,0,1,46.18,55.67Z"/><g class="cls-2"><polygon class="cls-3" points="98.72 89.97 98.67 33.41 81.53 4.73 81.58 70.32 98.72 89.97"/></g></g></g></svg>