<svg width="40" height="40" viewBox="0 0 40 40" fill="none" xmlns="http://www.w3.org/2000/svg">
<circle cx="20" cy="20" r="17" fill="#E8E8E8"/>
<path d="M20 0.833252C9.42004 0.833252 0.833374 9.41992 0.833374 19.9999C0.833374 30.5799 9.42004 39.1666 20 39.1666C30.58 39.1666 39.1667 30.5799 39.1667 19.9999C39.1667 9.41992 30.58 0.833252 20 0.833252ZM20 6.58325C23.1817 6.58325 25.75 9.15159 25.75 12.3333C25.75 15.5149 23.1817 18.0833 20 18.0833C16.8184 18.0833 14.25 15.5149 14.25 12.3333C14.25 9.15159 16.8184 6.58325 20 6.58325ZM20 33.7999C15.2084 33.7999 10.9725 31.3466 8.50004 27.6283C8.55754 23.8141 16.1667 21.7249 20 21.7249C23.8142 21.7249 31.4425 23.8141 31.5 27.6283C29.0275 31.3466 24.7917 33.7999 20 33.7999Z" fill="#FC5E5E"/>
</svg>
